<?xml version="1.0" encoding="utf-8"?>
<!-- Generator: Adobe Illustrator 21.0.0, SVG Export Plug-In . SVG Version: 6.00 Build 0)  -->
<svg version="1.1" id="Calque_1" xmlns="http://www.w3.org/2000/svg" xmlns:xlink="http://www.w3.org/1999/xlink" x="0px" y="0px"
	 viewBox="0 0 66 55" style="enable-background:new 0 0 66 55;" xml:space="preserve">
<style type="text/css">
	.st0{fill:#F3B400;}
	.st1{fill:#D89B03;}
	.st2{fill:#F5F1E2;}
	.st3{fill:#D6D0BB;}
</style>
<g id="XMLID_98_">
	<polygon id="XMLID_97_" class="st0" points="26.4,10.4 23.1,1.5 1,1.5 1,10.4 1,53.5 54.1,53.5 54.1,10.4 	"/>
	<path id="XMLID_111_" class="st1" d="M54.1,14.8H64l-9.9,38.4c0,0-0.1,0-0.1,0V14.8z"/>
	<rect id="XMLID_110_" x="7.6" y="32.5" class="st2" width="24.3" height="14.4"/>
	<path id="XMLID_109_" class="st3" d="M22,43.5h-9.9c-0.6,0-1.1-0.5-1.1-1.1c0-0.6,0.5-1.1,1.1-1.1H22c0.6,0,1.1,0.5,1.1,1.1
		C23.1,43,22.6,43.5,22,43.5"/>
	<path id="XMLID_108_" class="st3" d="M16.5,38h-4.4c-0.6,0-1.1-0.5-1.1-1.1c0-0.6,0.5-1.1,1.1-1.1h4.4c0.6,0,1.1,0.5,1.1,1.1
		C17.6,37.5,17.1,38,16.5,38"/>
	<path id="XMLID_107_" class="st3" d="M27.5,38h-2.2c-0.6,0-1.1-0.5-1.1-1.1c0-0.6,0.5-1.1,1.1-1.1h2.2c0.6,0,1.1,0.5,1.1,1.1
		C28.6,37.5,28.1,38,27.5,38"/>
	<path id="XMLID_106_" class="st3" d="M26.4,43.5c-0.3,0-0.6-0.1-0.8-0.3c-0.2-0.2-0.3-0.5-0.3-0.8c0-0.3,0.1-0.6,0.3-0.8
		c0.4-0.4,1.2-0.4,1.6,0c0.2,0.2,0.3,0.5,0.3,0.8c0,0.3-0.1,0.6-0.3,0.8C27,43.4,26.7,43.5,26.4,43.5"/>
	<path id="XMLID_105_" class="st3" d="M20.9,38c-0.3,0-0.6-0.1-0.8-0.3c-0.2-0.2-0.3-0.5-0.3-0.8c0-0.3,0.1-0.6,0.3-0.8
		c0.4-0.4,1.2-0.4,1.6,0c0.2,0.2,0.3,0.5,0.3,0.8c0,0.3-0.1,0.6-0.3,0.8C21.5,37.9,21.2,38,20.9,38"/>
</g>
</svg>
