<svg id="Calque_1" data-name="Calque 1" xmlns="http://www.w3.org/2000/svg" viewBox="0 0 66 55"><defs><style>.cls-1{fill:#f3b400;}.cls-2{fill:#d89b03;}</style></defs><title>Mediatheque</title><path class="cls-1" d="M52.5,1.74V5a1.62,1.62,0,0,1-1.63,1.63H49.25A1.62,1.62,0,0,1,47.62,5V1.74H18.37V5a1.62,1.62,0,0,1-1.63,1.63H15.12A1.63,1.63,0,0,1,13.5,5V1.74H10.25v52H13.5V50.49a1.63,1.63,0,0,1,1.63-1.63h1.63a1.62,1.62,0,0,1,1.63,1.63v3.25H47.62V50.49a1.62,1.62,0,0,1,1.63-1.63h1.63a1.62,1.62,0,0,1,1.63,1.63v3.25h3.25v-52ZM18.37,44a1.62,1.62,0,0,1-1.63,1.63H15.12A1.62,1.62,0,0,1,13.5,44V40.74a1.62,1.62,0,0,1,1.63-1.63h1.63a1.62,1.62,0,0,1,1.63,1.63Zm0-9.75a1.62,1.62,0,0,1-1.63,1.63H15.12a1.62,1.62,0,0,1-1.63-1.63V31a1.63,1.63,0,0,1,1.63-1.63h1.63A1.62,1.62,0,0,1,18.37,31Zm0-9.75a1.62,1.62,0,0,1-1.63,1.63H15.12a1.62,1.62,0,0,1-1.63-1.63V21.24a1.63,1.63,0,0,1,1.63-1.63h1.63a1.62,1.62,0,0,1,1.63,1.63Zm0-9.75a1.62,1.62,0,0,1-1.63,1.63H15.12a1.62,1.62,0,0,1-1.63-1.63V11.49a1.63,1.63,0,0,1,1.63-1.63h1.63a1.62,1.62,0,0,1,1.63,1.63ZM52.5,44a1.62,1.62,0,0,1-1.63,1.63H49.25A1.62,1.62,0,0,1,47.62,44V40.74a1.62,1.62,0,0,1,1.63-1.63h1.63a1.62,1.62,0,0,1,1.63,1.63Zm0-9.75a1.62,1.62,0,0,1-1.63,1.63H49.25a1.62,1.62,0,0,1-1.63-1.63V31a1.62,1.62,0,0,1,1.63-1.63h1.63A1.62,1.62,0,0,1,52.5,31Zm0-9.75a1.62,1.62,0,0,1-1.63,1.63H49.25a1.62,1.62,0,0,1-1.63-1.63V21.24a1.62,1.62,0,0,1,1.63-1.63h1.63a1.62,1.62,0,0,1,1.63,1.63Zm0-9.75a1.62,1.62,0,0,1-1.63,1.63H49.25a1.62,1.62,0,0,1-1.63-1.63V11.49a1.62,1.62,0,0,1,1.63-1.63h1.63a1.62,1.62,0,0,1,1.63,1.63Z"/><path class="cls-2" d="M42.75,14.74H23.25a1.63,1.63,0,0,0-1.63,1.63V39.12a1.62,1.62,0,0,0,1.63,1.63h19.5a1.62,1.62,0,0,0,1.63-1.63V16.37A1.62,1.62,0,0,0,42.75,14.74Zm-21.12-13V9.87a1.62,1.62,0,0,0,1.63,1.63h19.5a1.62,1.62,0,0,0,1.63-1.63V1.74ZM42.75,44H23.25a1.63,1.63,0,0,0-1.63,1.63v8.12H44.37V45.62A1.63,1.63,0,0,0,42.75,44Z"/></svg>