<?xml version="1.0" encoding="utf-8"?>
<!-- Generator: Adobe Illustrator 21.0.0, SVG Export Plug-In . SVG Version: 6.00 Build 0)  -->
<svg version="1.1" id="Calque_1" xmlns="http://www.w3.org/2000/svg" xmlns:xlink="http://www.w3.org/1999/xlink" x="0px" y="0px"
	 viewBox="0 0 66 55" style="enable-background:new 0 0 66 55;" xml:space="preserve">
<style type="text/css">
	.st0{fill:#F3B400;}
	.st1{fill:#D89B03;}
</style>
<g>
	<path class="st0" d="M63.8,50.6V8L42.5,29.8L63.8,50.6z M63.8,50.6"/>
	<path class="st0" d="M1.8,8v42.6L23,29.8L1.8,8z M1.8,8"/>
	<path class="st1" d="M3.2,6.5l21.7,22.3c0.1,0.1,0.5,0.4,0.5,0.5l6.1,6.3c0.7,0.6,1.7,0.6,2.4,0l6.1-6.3c0.1-0.1,0.4-0.5,0.5-0.6
		L62.3,6.5H3.2z M3.2,6.5"/>
	<path class="st1" d="M41.1,31.3l-5.7,5.8c-0.8,0.7-1.7,1.1-2.7,1.1c-0.9,0-1.9-0.4-2.6-1.1l-5.7-5.9l-21,20.6h58.8L41.1,31.3z
		 M41.1,31.3"/>
</g>
</svg>
